<svg xmlns="http://www.w3.org/2000/svg" xmlns:xlink="http://www.w3.org/1999/xlink" width="500" zoomAndPan="magnify" viewBox="0 0 375 374.999991" height="500" preserveAspectRatio="xMidYMid meet" version="1.0"><defs><g/><clipPath id="4dd4e1d113"><path d="M 16.371094 59 L 358.371094 59 L 358.371094 316.246094 L 16.371094 316.246094 Z M 16.371094 59 " clip-rule="nonzero"/></clipPath></defs><path fill="#545454" d="M 349.847656 188.15625 L 186.835938 68.625 L 24.894531 188.15625 L 186.835938 308.753906 Z M 349.847656 188.15625 " fill-opacity="1" fill-rule="nonzero"/><g clip-path="url(#4dd4e1d113)"><path fill="#545454" d="M 186.835938 316.226562 C 184.707031 316.226562 183.640625 316.226562 182.574219 315.15625 L 19.566406 194.558594 C 17.433594 193.492188 16.371094 190.289062 16.371094 188.15625 C 16.371094 186.019531 17.433594 182.820312 19.566406 181.75 L 182.574219 61.152344 C 185.769531 59.019531 188.96875 59.019531 192.164062 61.152344 L 355.171875 181.75 C 357.304688 182.820312 358.371094 186.019531 358.371094 188.15625 C 358.371094 190.289062 357.304688 193.492188 355.171875 194.558594 L 191.097656 315.15625 C 190.03125 316.226562 188.96875 316.226562 186.835938 316.226562 Z M 37.679688 188.15625 L 186.835938 298.082031 L 335.996094 188.15625 L 186.835938 78.230469 Z M 37.679688 188.15625 " fill-opacity="1" fill-rule="nonzero"/></g><g fill="#ffffff" fill-opacity="1"><g transform="translate(127.533615, 224.455705)"><g><path d="M 3.703125 0 L 3.703125 -11.5 L 20.6875 -11.5 L 20.6875 -55.28125 L 19.578125 -55.578125 C 17.171875 -54.421875 14.804688 -53.503906 12.484375 -52.828125 C 10.160156 -52.160156 7.503906 -51.632812 4.515625 -51.25 L 4.515625 -63.125 C 12.316406 -64.757812 18.625 -67.164062 23.4375 -70.34375 L 34.453125 -70.34375 L 34.453125 -11.5 L 49.609375 -11.5 L 49.609375 0 Z M 3.703125 0 "/></g></g></g><g fill="#ffffff" fill-opacity="1"><g transform="translate(179.449381, 224.455705)"><g><path d="M 34.359375 1.015625 C 28.617188 1.015625 23.617188 -0.257812 19.359375 -2.8125 C 15.109375 -5.363281 11.804688 -9.332031 9.453125 -14.71875 C 7.097656 -20.113281 5.921875 -26.929688 5.921875 -35.171875 C 5.921875 -43.421875 7.097656 -50.238281 9.453125 -55.625 C 11.804688 -61.007812 15.109375 -64.976562 19.359375 -67.53125 C 23.617188 -70.082031 28.617188 -71.359375 34.359375 -71.359375 C 40.128906 -71.359375 45.140625 -70.082031 49.390625 -67.53125 C 53.640625 -64.976562 56.941406 -61.007812 59.296875 -55.625 C 61.660156 -50.238281 62.84375 -43.421875 62.84375 -35.171875 C 62.84375 -26.929688 61.660156 -20.113281 59.296875 -14.71875 C 56.941406 -9.332031 53.640625 -5.363281 49.390625 -2.8125 C 45.140625 -0.257812 40.128906 1.015625 34.359375 1.015625 Z M 34.359375 -10.78125 C 37.503906 -10.78125 40.132812 -11.539062 42.25 -13.0625 C 44.363281 -14.582031 45.988281 -17.140625 47.125 -20.734375 C 48.269531 -24.328125 48.84375 -29.140625 48.84375 -35.171875 C 48.84375 -41.203125 48.269531 -46.015625 47.125 -49.609375 C 45.988281 -53.203125 44.363281 -55.757812 42.25 -57.28125 C 40.132812 -58.8125 37.503906 -59.578125 34.359375 -59.578125 C 31.210938 -59.578125 28.582031 -58.8125 26.46875 -57.28125 C 24.351562 -55.757812 22.722656 -53.203125 21.578125 -49.609375 C 20.441406 -46.015625 19.875 -41.203125 19.875 -35.171875 C 19.875 -29.140625 20.441406 -24.328125 21.578125 -20.734375 C 22.722656 -17.140625 24.351562 -14.582031 26.46875 -13.0625 C 28.582031 -11.539062 31.210938 -10.78125 34.359375 -10.78125 Z M 34.359375 -10.78125 "/></g></g></g></svg>