<svg xmlns="http://www.w3.org/2000/svg" xmlns:xlink="http://www.w3.org/1999/xlink" width="500" zoomAndPan="magnify" viewBox="0 0 375 374.999991" height="500" preserveAspectRatio="xMidYMid meet" version="1.0"><defs><g/><clipPath id="e93f1aa6a2"><path d="M 16.371094 49.089844 L 358.371094 49.089844 L 358.371094 306.339844 L 16.371094 306.339844 Z M 16.371094 49.089844 " clip-rule="nonzero"/></clipPath></defs><path fill="#545454" d="M 349.847656 178.25 L 186.835938 58.71875 L 24.894531 178.25 L 186.835938 298.847656 Z M 349.847656 178.25 " fill-opacity="1" fill-rule="nonzero"/><g clip-path="url(#e93f1aa6a2)"><path fill="#545454" d="M 186.835938 306.316406 C 184.707031 306.316406 183.640625 306.316406 182.574219 305.25 L 19.566406 184.652344 C 17.433594 183.585938 16.371094 180.382812 16.371094 178.25 C 16.371094 176.113281 17.433594 172.914062 19.566406 171.84375 L 182.574219 51.246094 C 185.769531 49.113281 188.96875 49.113281 192.164062 51.246094 L 355.171875 171.84375 C 357.304688 172.914062 358.371094 176.113281 358.371094 178.25 C 358.371094 180.382812 357.304688 183.585938 355.171875 184.652344 L 191.097656 305.25 C 190.03125 306.316406 188.96875 306.316406 186.835938 306.316406 Z M 37.679688 178.25 L 186.835938 288.175781 L 335.996094 178.25 L 186.835938 68.324219 Z M 37.679688 178.25 " fill-opacity="1" fill-rule="nonzero"/></g><g fill="#ffffff" fill-opacity="1"><g transform="translate(93.364026, 214.549019)"><g><path d="M 3.703125 0 L 3.703125 -11.5 L 20.6875 -11.5 L 20.6875 -55.28125 L 19.578125 -55.578125 C 17.171875 -54.421875 14.804688 -53.503906 12.484375 -52.828125 C 10.160156 -52.160156 7.503906 -51.632812 4.515625 -51.25 L 4.515625 -63.125 C 12.316406 -64.757812 18.625 -67.164062 23.4375 -70.34375 L 34.453125 -70.34375 L 34.453125 -11.5 L 49.609375 -11.5 L 49.609375 0 Z M 3.703125 0 "/></g></g></g><g fill="#ffffff" fill-opacity="1"><g transform="translate(145.279791, 214.549019)"><g><path d="M 34.359375 1.015625 C 28.617188 1.015625 23.617188 -0.257812 19.359375 -2.8125 C 15.109375 -5.363281 11.804688 -9.332031 9.453125 -14.71875 C 7.097656 -20.113281 5.921875 -26.929688 5.921875 -35.171875 C 5.921875 -43.421875 7.097656 -50.238281 9.453125 -55.625 C 11.804688 -61.007812 15.109375 -64.976562 19.359375 -67.53125 C 23.617188 -70.082031 28.617188 -71.359375 34.359375 -71.359375 C 40.128906 -71.359375 45.140625 -70.082031 49.390625 -67.53125 C 53.640625 -64.976562 56.941406 -61.007812 59.296875 -55.625 C 61.660156 -50.238281 62.84375 -43.421875 62.84375 -35.171875 C 62.84375 -26.929688 61.660156 -20.113281 59.296875 -14.71875 C 56.941406 -9.332031 53.640625 -5.363281 49.390625 -2.8125 C 45.140625 -0.257812 40.128906 1.015625 34.359375 1.015625 Z M 34.359375 -10.78125 C 37.503906 -10.78125 40.132812 -11.539062 42.25 -13.0625 C 44.363281 -14.582031 45.988281 -17.140625 47.125 -20.734375 C 48.269531 -24.328125 48.84375 -29.140625 48.84375 -35.171875 C 48.84375 -41.203125 48.269531 -46.015625 47.125 -49.609375 C 45.988281 -53.203125 44.363281 -55.757812 42.25 -57.28125 C 40.132812 -58.8125 37.503906 -59.578125 34.359375 -59.578125 C 31.210938 -59.578125 28.582031 -58.8125 26.46875 -57.28125 C 24.351562 -55.757812 22.722656 -53.203125 21.578125 -49.609375 C 20.441406 -46.015625 19.875 -41.203125 19.875 -35.171875 C 19.875 -29.140625 20.441406 -24.328125 21.578125 -20.734375 C 22.722656 -17.140625 24.351562 -14.582031 26.46875 -13.0625 C 28.582031 -11.539062 31.210938 -10.78125 34.359375 -10.78125 Z M 34.359375 -10.78125 "/></g></g></g><g fill="#ffffff" fill-opacity="1"><g transform="translate(214.035698, 214.549019)"><g><path d="M 34.359375 1.015625 C 28.617188 1.015625 23.617188 -0.257812 19.359375 -2.8125 C 15.109375 -5.363281 11.804688 -9.332031 9.453125 -14.71875 C 7.097656 -20.113281 5.921875 -26.929688 5.921875 -35.171875 C 5.921875 -43.421875 7.097656 -50.238281 9.453125 -55.625 C 11.804688 -61.007812 15.109375 -64.976562 19.359375 -67.53125 C 23.617188 -70.082031 28.617188 -71.359375 34.359375 -71.359375 C 40.128906 -71.359375 45.140625 -70.082031 49.390625 -67.53125 C 53.640625 -64.976562 56.941406 -61.007812 59.296875 -55.625 C 61.660156 -50.238281 62.84375 -43.421875 62.84375 -35.171875 C 62.84375 -26.929688 61.660156 -20.113281 59.296875 -14.71875 C 56.941406 -9.332031 53.640625 -5.363281 49.390625 -2.8125 C 45.140625 -0.257812 40.128906 1.015625 34.359375 1.015625 Z M 34.359375 -10.78125 C 37.503906 -10.78125 40.132812 -11.539062 42.25 -13.0625 C 44.363281 -14.582031 45.988281 -17.140625 47.125 -20.734375 C 48.269531 -24.328125 48.84375 -29.140625 48.84375 -35.171875 C 48.84375 -41.203125 48.269531 -46.015625 47.125 -49.609375 C 45.988281 -53.203125 44.363281 -55.757812 42.25 -57.28125 C 40.132812 -58.8125 37.503906 -59.578125 34.359375 -59.578125 C 31.210938 -59.578125 28.582031 -58.8125 26.46875 -57.28125 C 24.351562 -55.757812 22.722656 -53.203125 21.578125 -49.609375 C 20.441406 -46.015625 19.875 -41.203125 19.875 -35.171875 C 19.875 -29.140625 20.441406 -24.328125 21.578125 -20.734375 C 22.722656 -17.140625 24.351562 -14.582031 26.46875 -13.0625 C 28.582031 -11.539062 31.210938 -10.78125 34.359375 -10.78125 Z M 34.359375 -10.78125 "/></g></g></g></svg>