<svg xmlns="http://www.w3.org/2000/svg" xmlns:xlink="http://www.w3.org/1999/xlink" width="500" zoomAndPan="magnify" viewBox="0 0 375 374.999991" height="500" preserveAspectRatio="xMidYMid meet" version="1.0"><defs><g/><clipPath id="2bb60249e1"><path d="M 14 32 L 360 32 L 360 343 L 14 343 Z M 14 32 " clip-rule="nonzero"/></clipPath><clipPath id="23e7eb7bdd"><path d="M 140.277344 -40.785156 L 408.652344 113.867188 L 234.527344 416.039062 L -33.851562 261.382812 Z M 140.277344 -40.785156 " clip-rule="nonzero"/></clipPath><clipPath id="b76d89db48"><path d="M 140.277344 -40.785156 L 408.652344 113.867188 L 234.527344 416.039062 L -33.851562 261.382812 Z M 140.277344 -40.785156 " clip-rule="nonzero"/></clipPath><clipPath id="8e4b87bc51"><path d="M 112.375 -92.027344 L 466.976562 112.316406 L 262.425781 467.28125 L -92.175781 262.9375 Z M 112.375 -92.027344 " clip-rule="nonzero"/></clipPath><clipPath id="34317213a0"><path d="M 112.375 -92.027344 L 466.976562 112.316406 L 262.425781 467.28125 L -92.175781 262.9375 Z M 112.375 -92.027344 " clip-rule="nonzero"/></clipPath></defs><g clip-path="url(#2bb60249e1)"><g clip-path="url(#23e7eb7bdd)"><g clip-path="url(#b76d89db48)"><g clip-path="url(#8e4b87bc51)"><g clip-path="url(#34317213a0)"><path fill="#545454" d="M 255.4375 342.542969 L 187.460938 342.628906 L 119.480469 342.714844 C 107.632812 342.730469 93.203125 334.414062 87.273438 324.15625 L 19.25 206.4375 C 13.324219 196.179688 13.316406 179.507812 19.238281 169.238281 L 53.203125 110.292969 L 87.171875 51.347656 C 93.089844 41.078125 107.515625 32.722656 119.363281 32.707031 L 187.34375 32.621094 L 255.320312 32.539062 C 267.171875 32.523438 281.601562 40.835938 287.527344 51.097656 L 321.539062 109.953125 L 355.550781 168.8125 C 361.480469 179.070312 361.484375 195.742188 355.566406 206.011719 L 287.628906 323.902344 C 281.710938 334.175781 267.285156 342.527344 255.4375 342.542969 Z M 255.4375 342.542969 " fill-opacity="1" fill-rule="nonzero"/></g></g></g></g></g><g fill="#ffffff" fill-opacity="1"><g transform="translate(122.097162, 233.034758)"><g><path d="M 4.5625 0 L 4.5625 -14.171875 L 25.5 -14.171875 L 25.5 -68.125 L 24.125 -68.484375 C 21.164062 -67.054688 18.253906 -65.925781 15.390625 -65.09375 C 12.523438 -64.269531 9.253906 -63.617188 5.578125 -63.140625 L 5.578125 -77.78125 C 15.179688 -79.800781 22.945312 -82.765625 28.875 -86.671875 L 42.453125 -86.671875 L 42.453125 -14.171875 L 61.125 -14.171875 L 61.125 0 Z M 4.5625 0 "/></g></g></g><g fill="#ffffff" fill-opacity="1"><g transform="translate(186.064868, 233.034758)"><g><path d="M 4.203125 -6.875 C 4.203125 -11.65625 4.726562 -15.6875 5.78125 -18.96875 C 6.832031 -22.25 8.539062 -25.242188 10.90625 -27.953125 C 13.28125 -30.660156 16.640625 -33.578125 20.984375 -36.703125 L 32.546875 -45.0625 C 35.710938 -47.3125 38.171875 -49.265625 39.921875 -50.921875 C 41.679688 -52.585938 43.003906 -54.328125 43.890625 -56.140625 C 44.785156 -57.960938 45.234375 -60.039062 45.234375 -62.375 C 45.234375 -65.882812 44.164062 -68.597656 42.03125 -70.515625 C 39.894531 -72.441406 36.695312 -73.40625 32.4375 -73.40625 C 28.320312 -73.40625 24.660156 -72.425781 21.453125 -70.46875 C 18.253906 -68.507812 15.609375 -65.832031 13.515625 -62.4375 L 12.390625 -62.140625 L 2.96875 -72.6875 C 6.050781 -77.269531 10.070312 -80.953125 15.03125 -83.734375 C 19.988281 -86.523438 26.003906 -87.921875 33.078125 -87.921875 C 39.566406 -87.921875 44.992188 -86.851562 49.359375 -84.71875 C 53.722656 -82.582031 56.960938 -79.664062 59.078125 -75.96875 C 61.191406 -72.28125 62.25 -68.046875 62.25 -63.265625 C 62.25 -59.148438 61.390625 -55.390625 59.671875 -51.984375 C 57.953125 -48.585938 55.570312 -45.445312 52.53125 -42.5625 C 49.488281 -39.675781 45.59375 -36.578125 40.84375 -33.265625 L 30.59375 -26.09375 C 27.507812 -23.875 25.351562 -21.90625 24.125 -20.1875 C 22.90625 -18.46875 22.296875 -16.519531 22.296875 -14.34375 L 61.421875 -14.34375 L 61.421875 0 L 4.203125 0 Z M 4.203125 -6.875 "/></g></g></g></svg>