<svg xmlns="http://www.w3.org/2000/svg" xmlns:xlink="http://www.w3.org/1999/xlink" width="500" zoomAndPan="magnify" viewBox="0 0 375 374.999991" height="500" preserveAspectRatio="xMidYMid meet" version="1.0"><defs><g/><clipPath id="e11b8ca44f"><path d="M 32.601562 14 L 342.351562 14 L 342.351562 361 L 32.601562 361 Z M 32.601562 14 " clip-rule="nonzero"/></clipPath></defs><g clip-path="url(#e11b8ca44f)"><path fill="#545454" d="M 323.777344 287.910156 L 264.917969 321.925781 L 206.0625 355.941406 C 195.804688 361.871094 179.152344 361.871094 168.894531 355.941406 L 110.035156 321.925781 L 51.179688 287.910156 C 40.921875 281.980469 32.59375 267.542969 32.59375 255.6875 L 32.59375 119.625 C 32.59375 107.769531 40.921875 93.328125 51.179688 87.398438 L 110.035156 53.382812 L 168.894531 19.371094 C 179.152344 13.441406 195.804688 13.441406 206.0625 19.371094 L 264.917969 53.382812 L 323.777344 87.398438 C 334.035156 93.328125 342.363281 107.769531 342.363281 119.625 L 342.363281 255.6875 C 342.363281 267.542969 334.035156 281.980469 323.777344 287.910156 Z M 323.777344 287.910156 " fill-opacity="1" fill-rule="nonzero"/></g><g fill="#ffffff" fill-opacity="1"><g transform="translate(111.7807, 233.034729)"><g><path d="M 4.203125 -6.875 C 4.203125 -11.65625 4.726562 -15.6875 5.78125 -18.96875 C 6.832031 -22.25 8.539062 -25.242188 10.90625 -27.953125 C 13.28125 -30.660156 16.640625 -33.578125 20.984375 -36.703125 L 32.546875 -45.0625 C 35.710938 -47.3125 38.171875 -49.265625 39.921875 -50.921875 C 41.679688 -52.585938 43.003906 -54.328125 43.890625 -56.140625 C 44.785156 -57.960938 45.234375 -60.039062 45.234375 -62.375 C 45.234375 -65.882812 44.164062 -68.597656 42.03125 -70.515625 C 39.894531 -72.441406 36.695312 -73.40625 32.4375 -73.40625 C 28.320312 -73.40625 24.660156 -72.425781 21.453125 -70.46875 C 18.253906 -68.507812 15.609375 -65.832031 13.515625 -62.4375 L 12.390625 -62.140625 L 2.96875 -72.6875 C 6.050781 -77.269531 10.070312 -80.953125 15.03125 -83.734375 C 19.988281 -86.523438 26.003906 -87.921875 33.078125 -87.921875 C 39.566406 -87.921875 44.992188 -86.851562 49.359375 -84.71875 C 53.722656 -82.582031 56.960938 -79.664062 59.078125 -75.96875 C 61.191406 -72.28125 62.25 -68.046875 62.25 -63.265625 C 62.25 -59.148438 61.390625 -55.390625 59.671875 -51.984375 C 57.953125 -48.585938 55.570312 -45.445312 52.53125 -42.5625 C 49.488281 -39.675781 45.59375 -36.578125 40.84375 -33.265625 L 30.59375 -26.09375 C 27.507812 -23.875 25.351562 -21.90625 24.125 -20.1875 C 22.90625 -18.46875 22.296875 -16.519531 22.296875 -14.34375 L 61.421875 -14.34375 L 61.421875 0 L 4.203125 0 Z M 4.203125 -6.875 "/></g></g></g><g fill="#ffffff" fill-opacity="1"><g transform="translate(179.424029, 233.034729)"><g><path d="M 42.328125 1.25 C 35.253906 1.25 29.097656 -0.320312 23.859375 -3.46875 C 18.617188 -6.613281 14.546875 -11.503906 11.640625 -18.140625 C 8.742188 -24.785156 7.296875 -33.1875 7.296875 -43.34375 C 7.296875 -53.5 8.742188 -61.894531 11.640625 -68.53125 C 14.546875 -75.175781 18.617188 -80.066406 23.859375 -83.203125 C 29.097656 -86.347656 35.253906 -87.921875 42.328125 -87.921875 C 49.441406 -87.921875 55.617188 -86.347656 60.859375 -83.203125 C 66.097656 -80.066406 70.171875 -75.175781 73.078125 -68.53125 C 75.984375 -61.894531 77.4375 -53.5 77.4375 -43.34375 C 77.4375 -33.1875 75.984375 -24.785156 73.078125 -18.140625 C 70.171875 -11.503906 66.097656 -6.613281 60.859375 -3.46875 C 55.617188 -0.320312 49.441406 1.25 42.328125 1.25 Z M 42.328125 -13.28125 C 46.203125 -13.28125 49.441406 -14.21875 52.046875 -16.09375 C 54.660156 -17.96875 56.664062 -21.117188 58.0625 -25.546875 C 59.46875 -29.972656 60.171875 -35.90625 60.171875 -43.34375 C 60.171875 -50.769531 59.46875 -56.695312 58.0625 -61.125 C 56.664062 -65.550781 54.660156 -68.703125 52.046875 -70.578125 C 49.441406 -72.460938 46.203125 -73.40625 42.328125 -73.40625 C 38.453125 -73.40625 35.210938 -72.460938 32.609375 -70.578125 C 30.003906 -68.703125 28 -65.550781 26.59375 -61.125 C 25.1875 -56.695312 24.484375 -50.769531 24.484375 -43.34375 C 24.484375 -35.90625 25.1875 -29.972656 26.59375 -25.546875 C 28 -21.117188 30.003906 -17.96875 32.609375 -16.09375 C 35.210938 -14.21875 38.453125 -13.28125 42.328125 -13.28125 Z M 42.328125 -13.28125 "/></g></g></g></svg>