<svg xmlns="http://www.w3.org/2000/svg" xmlns:xlink="http://www.w3.org/1999/xlink" width="500" zoomAndPan="magnify" viewBox="0 0 375 374.999991" height="500" preserveAspectRatio="xMidYMid meet" version="1.0"><defs><g/><clipPath id="9c8558e5b1"><path d="M 32 53 L 343 53 L 343 323.960938 L 32 323.960938 Z M 32 53 " clip-rule="nonzero"/></clipPath></defs><g clip-path="url(#9c8558e5b1)"><path fill="#545454" d="M 34.582031 305.601562 L 177.027344 59.121094 C 181.730469 50.960938 193.488281 50.960938 198.191406 59.121094 L 340.640625 305.664062 C 345.34375 313.824219 339.464844 323.960938 330.058594 323.960938 L 45.160156 323.960938 C 35.757812 323.898438 29.878906 313.761719 34.582031 305.601562 Z M 34.582031 305.601562 " fill-opacity="1" fill-rule="nonzero"/></g><g fill="#ffffff" fill-opacity="1"><g transform="translate(136.068615, 276.78215)"><g><path d="M 69.71875 0 L 50.265625 0 L 50.265625 -22.328125 L 3.515625 -22.328125 L 3.515625 -38.6875 L 43.75 -102.65625 L 69.71875 -102.65625 L 69.71875 -38.6875 L 85.515625 -38.6875 L 85.515625 -22.328125 L 69.71875 -22.328125 Z M 24.296875 -40.15625 L 24.921875 -38.6875 L 50.265625 -38.6875 L 50.265625 -78.421875 L 48.65625 -78.703125 Z M 24.296875 -40.15625 "/></g></g></g></svg>