<svg xmlns="http://www.w3.org/2000/svg" xmlns:xlink="http://www.w3.org/1999/xlink" width="500" zoomAndPan="magnify" viewBox="0 0 375 374.999991" height="500" preserveAspectRatio="xMidYMid meet" version="1.0"><defs><g/></defs><path fill="#545454" d="M 305.894531 60 L 69.105469 60 C 64.078125 60 60 64.078125 60 69.105469 L 60 305.894531 C 60 310.9375 64.078125 315 69.105469 315 L 305.894531 315 C 310.921875 315 315 310.921875 315 305.894531 L 315 69.105469 C 315 64.078125 310.921875 60 305.894531 60 Z M 305.894531 60 " fill-opacity="1" fill-rule="nonzero"/><g fill="#ffffff" fill-opacity="1"><g transform="translate(141.15817, 241.425021)"><g><path d="M 49.078125 1.46875 C 41.359375 1.46875 34.46875 -0.304688 28.40625 -3.859375 C 22.34375 -7.421875 17.53125 -13.070312 13.96875 -20.8125 C 10.414062 -28.5625 8.640625 -38.40625 8.640625 -50.34375 C 8.640625 -62.507812 10.507812 -72.609375 14.25 -80.640625 C 18 -88.671875 23.113281 -94.59375 29.59375 -98.40625 C 36.070312 -102.21875 43.503906 -104.125 51.890625 -104.125 C 58.859375 -104.125 64.859375 -103.117188 69.890625 -101.109375 C 74.921875 -99.097656 78.84375 -96.125 81.65625 -92.1875 L 71.6875 -79.40625 L 69.9375 -79.40625 C 65.675781 -84.507812 59.660156 -87.0625 51.890625 -87.0625 C 37.285156 -87.0625 29.816406 -76.367188 29.484375 -54.984375 L 30.96875 -54.484375 C 33.351562 -58.878906 36.5 -62.234375 40.40625 -64.546875 C 44.3125 -66.867188 49.238281 -68.03125 55.1875 -68.03125 C 61.550781 -68.03125 67.050781 -66.6875 71.6875 -64 C 76.320312 -61.3125 79.878906 -57.460938 82.359375 -52.453125 C 84.835938 -47.441406 86.078125 -41.492188 86.078125 -34.609375 C 86.078125 -27.117188 84.59375 -20.660156 81.625 -15.234375 C 78.65625 -9.804688 74.382812 -5.664062 68.8125 -2.8125 C 63.238281 0.0390625 56.660156 1.46875 49.078125 1.46875 Z M 48.65625 -15.875 C 53.945312 -15.875 58.085938 -17.425781 61.078125 -20.53125 C 64.078125 -23.644531 65.578125 -28.007812 65.578125 -33.625 C 65.578125 -39.25 64.078125 -43.613281 61.078125 -46.71875 C 58.085938 -49.832031 53.945312 -51.390625 48.65625 -51.390625 C 45.195312 -51.390625 42.164062 -50.664062 39.5625 -49.21875 C 36.96875 -47.769531 34.96875 -45.707031 33.5625 -43.03125 C 32.15625 -40.363281 31.453125 -37.226562 31.453125 -33.625 C 31.453125 -28.15625 32.984375 -23.828125 36.046875 -20.640625 C 39.117188 -17.460938 43.320312 -15.875 48.65625 -15.875 Z M 48.65625 -15.875 "/></g></g></g></svg>