<svg xmlns="http://www.w3.org/2000/svg" xmlns:xlink="http://www.w3.org/1999/xlink" width="500" zoomAndPan="magnify" viewBox="0 0 375 374.999991" height="500" preserveAspectRatio="xMidYMid meet" version="1.0"><defs><g/><clipPath id="6241f84369"><path d="M 58.75 16.371094 L 316 16.371094 L 316 358.371094 L 58.75 358.371094 Z M 58.75 16.371094 " clip-rule="nonzero"/></clipPath></defs><path fill="#545454" d="M 186.839844 349.847656 L 306.375 186.835938 L 186.839844 24.894531 L 66.242188 186.835938 Z M 186.839844 349.847656 " fill-opacity="1" fill-rule="nonzero"/><g clip-path="url(#6241f84369)"><path fill="#545454" d="M 58.773438 186.835938 C 58.773438 184.707031 58.773438 183.640625 59.839844 182.574219 L 180.4375 19.566406 C 181.503906 17.433594 184.707031 16.371094 186.839844 16.371094 C 188.976562 16.371094 192.179688 17.433594 193.246094 19.566406 L 313.84375 182.574219 C 315.976562 185.773438 315.976562 188.96875 313.84375 192.164062 L 193.246094 355.171875 C 192.179688 357.304688 188.976562 358.371094 186.839844 358.371094 C 184.707031 358.371094 181.503906 357.304688 180.4375 355.171875 L 59.839844 191.097656 C 58.773438 190.035156 58.773438 188.96875 58.773438 186.835938 Z M 186.839844 37.679688 L 76.914062 186.835938 L 186.839844 335.996094 L 296.769531 186.835938 Z M 186.839844 37.679688 " fill-opacity="1" fill-rule="nonzero"/></g><g fill="#ffffff" fill-opacity="1"><g transform="translate(143.749097, 241.424985)"><g><path d="M 44.03125 1.46875 C 35.882812 1.46875 28.988281 0.207031 23.34375 -2.3125 C 17.707031 -4.84375 13.457031 -8.445312 10.59375 -13.125 C 7.738281 -17.8125 6.3125 -23.359375 6.3125 -29.765625 C 6.3125 -35.710938 7.785156 -40.863281 10.734375 -45.21875 C 13.691406 -49.570312 18 -52.988281 23.65625 -55.46875 L 23.65625 -56.9375 C 19.632812 -59.425781 16.554688 -62.378906 14.421875 -65.796875 C 12.296875 -69.210938 11.234375 -73.210938 11.234375 -77.796875 C 11.234375 -82.992188 12.507812 -87.582031 15.0625 -91.5625 C 17.613281 -95.539062 21.359375 -98.628906 26.296875 -100.828125 C 31.234375 -103.023438 37.144531 -104.125 44.03125 -104.125 C 50.90625 -104.125 56.800781 -103.023438 61.71875 -100.828125 C 66.632812 -98.628906 70.378906 -95.539062 72.953125 -91.5625 C 75.523438 -87.582031 76.8125 -82.992188 76.8125 -77.796875 C 76.8125 -73.210938 75.734375 -69.222656 73.578125 -65.828125 C 71.429688 -62.429688 68.320312 -59.46875 64.25 -56.9375 L 64.25 -55.46875 C 70.238281 -53.082031 74.632812 -49.6875 77.4375 -45.28125 C 80.25 -40.882812 81.65625 -35.710938 81.65625 -29.765625 C 81.65625 -23.359375 80.226562 -17.8125 77.375 -13.125 C 74.519531 -8.445312 70.28125 -4.84375 64.65625 -2.3125 C 59.039062 0.207031 52.164062 1.46875 44.03125 1.46875 Z M 44.03125 -62.703125 C 48.09375 -62.703125 51.328125 -63.820312 53.734375 -66.0625 C 56.148438 -68.3125 57.359375 -71.425781 57.359375 -75.40625 C 57.359375 -79.4375 56.148438 -82.597656 53.734375 -84.890625 C 51.328125 -87.179688 48.09375 -88.328125 44.03125 -88.328125 C 39.863281 -88.328125 36.582031 -87.191406 34.1875 -84.921875 C 31.800781 -82.648438 30.609375 -79.476562 30.609375 -75.40625 C 30.609375 -71.382812 31.800781 -68.257812 34.1875 -66.03125 C 36.582031 -63.8125 39.863281 -62.703125 44.03125 -62.703125 Z M 44.03125 -15.796875 C 49.5 -15.796875 53.726562 -17.164062 56.71875 -19.90625 C 59.71875 -22.644531 61.21875 -26.445312 61.21875 -31.3125 C 61.21875 -36.1875 59.71875 -39.988281 56.71875 -42.71875 C 53.726562 -45.457031 49.5 -46.828125 44.03125 -46.828125 C 38.5 -46.828125 34.234375 -45.457031 31.234375 -42.71875 C 28.242188 -39.988281 26.75 -36.1875 26.75 -31.3125 C 26.75 -26.445312 28.242188 -22.644531 31.234375 -19.90625 C 34.234375 -17.164062 38.5 -15.796875 44.03125 -15.796875 Z M 44.03125 -15.796875 "/></g></g></g></svg>